<svg width="197" height="76" viewBox="0 0 197 76" fill="none" xmlns="http://www.w3.org/2000/svg">
<path d="M99.6364 49H93.7216V31.5455H99.7557C101.489 31.5455 102.977 31.8949 104.222 32.5938C105.472 33.2869 106.432 34.2841 107.102 35.5852C107.773 36.8864 108.108 38.4432 108.108 40.2557C108.108 42.0739 107.77 43.6364 107.094 44.9432C106.423 46.25 105.455 47.2528 104.188 47.9517C102.926 48.6506 101.409 49 99.6364 49ZM96.8835 46.2642H99.483C100.699 46.2642 101.713 46.0426 102.526 45.5994C103.338 45.1506 103.949 44.483 104.358 43.5966C104.767 42.7045 104.972 41.5909 104.972 40.2557C104.972 38.9205 104.767 37.8125 104.358 36.9318C103.949 36.0455 103.344 35.3835 102.543 34.946C101.747 34.5028 100.759 34.2812 99.5767 34.2812H96.8835V46.2642ZM110.976 49V35.9091H113.967V38.0909H114.104C114.342 37.3352 114.751 36.7528 115.331 36.3438C115.916 35.929 116.584 35.7216 117.334 35.7216C117.504 35.7216 117.695 35.7301 117.905 35.7472C118.121 35.7585 118.3 35.7784 118.442 35.8068V38.6449C118.311 38.5994 118.104 38.5597 117.82 38.5256C117.541 38.4858 117.271 38.4659 117.01 38.4659C116.447 38.4659 115.942 38.5881 115.493 38.8324C115.05 39.071 114.7 39.4034 114.445 39.8295C114.189 40.2557 114.061 40.7472 114.061 41.304V49H110.976ZM125.663 49.2557C124.384 49.2557 123.276 48.9744 122.339 48.4119C121.401 47.8494 120.674 47.0625 120.157 46.0511C119.646 45.0398 119.39 43.858 119.39 42.5057C119.39 41.1534 119.646 39.9687 120.157 38.9517C120.674 37.9347 121.401 37.1449 122.339 36.5824C123.276 36.0199 124.384 35.7386 125.663 35.7386C126.941 35.7386 128.049 36.0199 128.987 36.5824C129.924 37.1449 130.648 37.9347 131.16 38.9517C131.677 39.9687 131.935 41.1534 131.935 42.5057C131.935 43.858 131.677 45.0398 131.16 46.0511C130.648 47.0625 129.924 47.8494 128.987 48.4119C128.049 48.9744 126.941 49.2557 125.663 49.2557ZM125.68 46.7841C126.373 46.7841 126.952 46.5937 127.418 46.2131C127.884 45.8267 128.231 45.3097 128.458 44.6619C128.691 44.0142 128.808 43.2926 128.808 42.4972C128.808 41.696 128.691 40.9716 128.458 40.3239C128.231 39.6705 127.884 39.1506 127.418 38.7642C126.952 38.3778 126.373 38.1847 125.68 38.1847C124.969 38.1847 124.379 38.3778 123.907 38.7642C123.441 39.1506 123.092 39.6705 122.859 40.3239C122.631 40.9716 122.518 41.696 122.518 42.4972C122.518 43.2926 122.631 44.0142 122.859 44.6619C123.092 45.3097 123.441 45.8267 123.907 46.2131C124.379 46.5937 124.969 46.7841 125.68 46.7841ZM134.554 53.9091V35.9091H137.588V38.0739H137.767C137.926 37.7557 138.151 37.4176 138.44 37.0597C138.73 36.696 139.122 36.3864 139.616 36.1307C140.111 35.8693 140.741 35.7386 141.509 35.7386C142.52 35.7386 143.432 35.9972 144.244 36.5142C145.063 37.0256 145.71 37.7841 146.188 38.7898C146.67 39.7898 146.912 41.017 146.912 42.4716C146.912 43.9091 146.676 45.1307 146.205 46.1364C145.733 47.142 145.091 47.9091 144.278 48.4375C143.466 48.9659 142.545 49.2301 141.517 49.2301C140.767 49.2301 140.145 49.1051 139.651 48.8551C139.156 48.6051 138.759 48.304 138.457 47.9517C138.162 47.5937 137.932 47.2557 137.767 46.9375H137.639V53.9091H134.554ZM137.58 42.4545C137.58 43.3011 137.699 44.0426 137.938 44.679C138.182 45.3153 138.531 45.8125 138.986 46.1705C139.446 46.5227 140.003 46.6989 140.656 46.6989C141.338 46.6989 141.909 46.517 142.369 46.1534C142.83 45.7841 143.176 45.2812 143.409 44.6449C143.648 44.0028 143.767 43.2727 143.767 42.4545C143.767 41.642 143.651 40.9205 143.418 40.2898C143.185 39.6591 142.838 39.1648 142.378 38.8068C141.918 38.4489 141.344 38.2699 140.656 38.2699C139.997 38.2699 139.438 38.4432 138.977 38.7898C138.517 39.1364 138.168 39.6222 137.929 40.2472C137.696 40.8722 137.58 41.608 137.58 42.4545ZM149.69 31.5455H153.56L158.741 44.1932H158.946L164.128 31.5455H167.997V49H164.963V37.0085H164.801L159.977 48.9489H157.71L152.886 36.983H152.724V49H149.69V31.5455ZM175.071 49.2642C174.241 49.2642 173.494 49.1165 172.83 48.821C172.17 48.5199 171.648 48.0767 171.261 47.4915C170.881 46.9062 170.69 46.1847 170.69 45.3267C170.69 44.5881 170.827 43.9773 171.099 43.4943C171.372 43.0114 171.744 42.625 172.216 42.3352C172.688 42.0455 173.219 41.8267 173.81 41.679C174.406 41.5256 175.023 41.4148 175.659 41.3466C176.426 41.267 177.048 41.196 177.526 41.1335C178.003 41.0653 178.349 40.9631 178.565 40.8267C178.787 40.6847 178.898 40.4659 178.898 40.1705V40.1193C178.898 39.4773 178.707 38.9801 178.327 38.6278C177.946 38.2756 177.398 38.0994 176.682 38.0994C175.926 38.0994 175.327 38.2642 174.884 38.5938C174.446 38.9233 174.151 39.3125 173.997 39.7614L171.116 39.3523C171.344 38.5568 171.719 37.892 172.241 37.358C172.764 36.8182 173.403 36.4148 174.159 36.1477C174.915 35.875 175.75 35.7386 176.665 35.7386C177.295 35.7386 177.923 35.8125 178.548 35.9602C179.173 36.108 179.744 36.3523 180.261 36.6932C180.778 37.0284 181.193 37.4858 181.506 38.0653C181.824 38.6449 181.983 39.3693 181.983 40.2386V49H179.017V47.2017H178.915C178.727 47.5653 178.463 47.9062 178.122 48.2244C177.787 48.5369 177.364 48.7898 176.852 48.983C176.347 49.1705 175.753 49.2642 175.071 49.2642ZM175.872 46.9972C176.491 46.9972 177.028 46.875 177.483 46.6307C177.938 46.3807 178.287 46.0511 178.531 45.642C178.781 45.233 178.906 44.7869 178.906 44.304V42.7614C178.81 42.8409 178.645 42.9148 178.412 42.983C178.185 43.0511 177.929 43.1108 177.645 43.1619C177.361 43.2131 177.08 43.2585 176.801 43.2983C176.523 43.3381 176.281 43.3722 176.077 43.4006C175.616 43.4631 175.205 43.5653 174.841 43.7074C174.477 43.8494 174.19 44.0483 173.98 44.304C173.77 44.554 173.665 44.8778 173.665 45.2756C173.665 45.8438 173.872 46.2727 174.287 46.5625C174.702 46.8523 175.23 46.9972 175.872 46.9972ZM185.085 49V35.9091H188.17V49H185.085ZM186.636 34.0511C186.148 34.0511 185.727 33.8892 185.375 33.5653C185.023 33.2358 184.847 32.8409 184.847 32.3807C184.847 31.9148 185.023 31.5199 185.375 31.196C185.727 30.8665 186.148 30.7017 186.636 30.7017C187.131 30.7017 187.551 30.8665 187.898 31.196C188.25 31.5199 188.426 31.9148 188.426 32.3807C188.426 32.8409 188.25 33.2358 187.898 33.5653C187.551 33.8892 187.131 34.0511 186.636 34.0511ZM194.428 31.5455V49H191.343V31.5455H194.428Z" fill="black"/>
<path d="M28.5 11.875H21.888C20.3647 11.8753 18.8815 12.3638 17.6562 13.2688C16.4309 14.1738 15.5279 15.4478 15.0797 16.9037L7.44167 41.7272C7.23247 42.4052 7.12573 43.1107 7.125 43.8203V57C7.125 58.8897 7.87567 60.7019 9.21186 62.0381C10.5481 63.3743 12.3603 64.125 14.25 64.125H61.75C63.6397 64.125 65.4519 63.3743 66.7881 62.0381C68.1243 60.7019 68.875 58.8897 68.875 57V43.8203C68.875 43.111 68.7673 42.4048 68.5583 41.7272L60.9267 16.9037C60.4785 15.4478 59.5755 14.1738 58.3501 13.2688C57.1248 12.3638 55.6417 11.8753 54.1183 11.875H47.5M7.125 42.75H19.3483C20.6714 42.7503 21.9682 43.119 23.0935 43.8148C24.2188 44.5106 25.1281 45.5059 25.7197 46.6893L26.5303 48.3107C27.1221 49.4946 28.032 50.4902 29.1579 51.186C30.2838 51.8818 31.5813 52.2503 32.9048 52.25H43.0952C44.4187 52.2503 45.7162 51.8818 46.8421 51.186C47.968 50.4902 48.8779 49.4946 49.4697 48.3107L50.2803 46.6893C50.8721 45.5054 51.782 44.5098 52.9079 43.814C54.0338 43.1182 55.3313 42.7498 56.6548 42.75H68.875M38 9.5V35.625ZM38 35.625L28.5 26.125ZM38 35.625L47.5 26.125Z" fill="#5AE5BA"/>
<path d="M28.5 11.875H21.888C20.3647 11.8753 18.8815 12.3638 17.6562 13.2688C16.4309 14.1738 15.5279 15.4478 15.0797 16.9037L7.44167 41.7272C7.23247 42.4052 7.12573 43.1107 7.125 43.8203V57C7.125 58.8897 7.87567 60.7019 9.21186 62.0381C10.5481 63.3743 12.3603 64.125 14.25 64.125H61.75C63.6397 64.125 65.4519 63.3743 66.7881 62.0381C68.1243 60.7019 68.875 58.8897 68.875 57V43.8203C68.875 43.111 68.7673 42.4048 68.5583 41.7272L60.9267 16.9037C60.4785 15.4478 59.5755 14.1738 58.3501 13.2688C57.1248 12.3638 55.6417 11.8753 54.1183 11.875H47.5M7.125 42.75H19.3483C20.6714 42.7503 21.9682 43.119 23.0935 43.8148C24.2188 44.5106 25.1281 45.5059 25.7197 46.6893L26.5303 48.3107C27.1221 49.4946 28.032 50.4902 29.1579 51.186C30.2838 51.8818 31.5813 52.2503 32.9048 52.25H43.0952C44.4187 52.2503 45.7162 51.8818 46.8421 51.186C47.968 50.4902 48.8779 49.4946 49.4697 48.3107L50.2803 46.6893C50.8721 45.5054 51.782 44.5098 52.9079 43.814C54.0338 43.1182 55.3313 42.7498 56.6548 42.75H68.875M38 9.5V35.625M38 35.625L28.5 26.125M38 35.625L47.5 26.125" stroke="black" stroke-width="4.5" stroke-linecap="round" stroke-linejoin="round"/>
</svg>
